<?xml version="1.0" encoding="UTF-8"?><svg xmlns="http://www.w3.org/2000/svg" xmlns:xlink="http://www.w3.org/1999/xlink" fill-opacity="1" color-rendering="auto" color-interpolation="auto" text-rendering="auto" stroke="black" stroke-linecap="square" width="2444" stroke-miterlimit="10" shape-rendering="auto" stroke-opacity="1" fill="black" stroke-dasharray="none" font-weight="normal" stroke-width="1" height="865" font-family="'Dialog'" font-style="normal" stroke-linejoin="miter" font-size="12px" stroke-dashoffset="0" image-rendering="auto">
  <!--Generated by ySVG 2.5-->
  <defs id="genericDefs"/>
  <g>
    <defs id="defs1">
      <clipPath clipPathUnits="userSpaceOnUse" id="clipPath1">
        <path d="M0 0 L2444 0 L2444 865 L0 865 L0 0 Z"/>
      </clipPath>
      <clipPath clipPathUnits="userSpaceOnUse" id="clipPath2">
        <path d="M-15 -15 L2429 -15 L2429 850 L-15 850 L-15 -15 Z"/>
      </clipPath>
    </defs>
    <g fill="white" text-rendering="geometricPrecision" shape-rendering="geometricPrecision" transform="translate(15,15)" stroke="white">
      <rect x="-15" width="2444" height="865" y="-15" clip-path="url(#clipPath2)" stroke="none"/>
    </g>
    <g fill="yellow" text-rendering="geometricPrecision" shape-rendering="geometricPrecision" transform="matrix(1,0,0,1,15,15)" stroke="yellow">
      <rect x="326.8633" y="94.3506" clip-path="url(#clipPath2)" width="144.75" rx="4" ry="4" height="30" stroke="none"/>
    </g>
    <g font-size="16px" stroke-linecap="butt" transform="matrix(1,0,0,1,15,15)" text-rendering="geometricPrecision" font-family="sans-serif" shape-rendering="geometricPrecision" stroke-miterlimit="1.45">
      <text x="333.8633" xml:space="preserve" y="115.6357" clip-path="url(#clipPath2)" stroke="none">anac-onto:Amount</text>
      <rect x="326.8633" y="94.3506" clip-path="url(#clipPath2)" fill="none" width="144.75" rx="4" ry="4" height="30"/>
    </g>
    <g fill="yellow" text-rendering="geometricPrecision" shape-rendering="geometricPrecision" transform="matrix(1,0,0,1,15,15)" stroke="yellow">
      <rect x="1633.5352" y="454.3506" clip-path="url(#clipPath2)" width="131.4062" rx="4" ry="4" height="30" stroke="none"/>
    </g>
    <g font-size="16px" stroke-linecap="butt" transform="matrix(1,0,0,1,15,15)" text-rendering="geometricPrecision" font-family="sans-serif" shape-rendering="geometricPrecision" stroke-miterlimit="1.45">
      <text x="1640.5352" xml:space="preserve" y="475.6357" clip-path="url(#clipPath2)" stroke="none">anac-onto:Buyer</text>
      <rect x="1633.5352" y="454.3506" clip-path="url(#clipPath2)" fill="none" width="131.4062" rx="4" ry="4" height="30"/>
    </g>
    <g fill="yellow" text-rendering="geometricPrecision" shape-rendering="geometricPrecision" transform="matrix(1,0,0,1,15,15)" stroke="yellow">
      <rect x="1840.2109" y="94.3506" clip-path="url(#clipPath2)" width="118.0547" rx="4" ry="4" height="30" stroke="none"/>
    </g>
    <g font-size="16px" stroke-linecap="butt" transform="matrix(1,0,0,1,15,15)" text-rendering="geometricPrecision" font-family="sans-serif" shape-rendering="geometricPrecision" stroke-miterlimit="1.45">
      <text x="1847.2109" xml:space="preserve" y="115.6357" clip-path="url(#clipPath2)" stroke="none">anac-onto:CIG</text>
      <rect x="1840.2109" y="94.3506" clip-path="url(#clipPath2)" fill="none" width="118.0547" rx="4" ry="4" height="30"/>
    </g>
    <g fill="yellow" text-rendering="geometricPrecision" shape-rendering="geometricPrecision" transform="matrix(1,0,0,1,15,15)" stroke="yellow">
      <rect x="1343.3125" y="94.3506" clip-path="url(#clipPath2)" width="111.8516" rx="4" ry="4" height="30" stroke="none"/>
    </g>
    <g font-size="16px" stroke-linecap="butt" transform="matrix(1,0,0,1,15,15)" text-rendering="geometricPrecision" font-family="sans-serif" shape-rendering="geometricPrecision" stroke-miterlimit="1.45">
      <text x="1350.3125" xml:space="preserve" y="115.6357" clip-path="url(#clipPath2)" stroke="none">anac-onto:Lot</text>
      <rect x="1343.3125" y="94.3506" clip-path="url(#clipPath2)" fill="none" width="111.8516" rx="4" ry="4" height="30"/>
    </g>
    <g fill="yellow" text-rendering="geometricPrecision" shape-rendering="geometricPrecision" transform="matrix(1,0,0,1,15,15)" stroke="yellow">
      <rect x="1057.5234" y="454.3506" clip-path="url(#clipPath2)" width="163.4297" rx="4" ry="4" height="30" stroke="none"/>
    </g>
    <g font-size="16px" stroke-linecap="butt" transform="matrix(1,0,0,1,15,15)" text-rendering="geometricPrecision" font-family="sans-serif" shape-rendering="geometricPrecision" stroke-miterlimit="1.45">
      <text x="1064.5234" xml:space="preserve" y="475.6357" clip-path="url(#clipPath2)" stroke="none">anac-onto:Procedure</text>
      <rect x="1057.5234" y="454.3506" clip-path="url(#clipPath2)" fill="none" width="163.4297" rx="4" ry="4" height="30"/>
    </g>
    <g fill="yellow" text-rendering="geometricPrecision" shape-rendering="geometricPrecision" transform="matrix(1,0,0,1,15,15)" stroke="yellow">
      <rect x="2254.6367" y="94.3506" clip-path="url(#clipPath2)" width="149.2031" rx="4" ry="4" height="30" stroke="none"/>
    </g>
    <g font-size="16px" stroke-linecap="butt" transform="matrix(1,0,0,1,15,15)" text-rendering="geometricPrecision" font-family="sans-serif" shape-rendering="geometricPrecision" stroke-miterlimit="1.45">
      <text x="2261.6367" xml:space="preserve" y="115.6357" clip-path="url(#clipPath2)" stroke="none">anac-onto:Purpose</text>
      <rect x="2254.6367" y="94.3506" clip-path="url(#clipPath2)" fill="none" width="149.2031" rx="4" ry="4" height="30"/>
    </g>
    <g fill="yellow" text-rendering="geometricPrecision" shape-rendering="geometricPrecision" transform="matrix(1,0,0,1,15,15)" stroke="yellow">
      <rect x="703.9727" y="44.3506" clip-path="url(#clipPath2)" width="130.5312" rx="4" ry="4" height="30" stroke="none"/>
    </g>
    <g font-size="16px" stroke-linecap="butt" transform="matrix(1,0,0,1,15,15)" text-rendering="geometricPrecision" font-family="sans-serif" shape-rendering="geometricPrecision" stroke-miterlimit="1.45">
      <text x="710.9727" xml:space="preserve" y="65.6357" clip-path="url(#clipPath2)" stroke="none">anac-onto:Value</text>
      <rect x="703.9727" y="44.3506" clip-path="url(#clipPath2)" fill="none" width="130.5312" rx="4" ry="4" height="30"/>
    </g>
    <g fill="rgb(204,255,204)" text-rendering="geometricPrecision" shape-rendering="geometricPrecision" transform="matrix(1,0,0,1,15,15)" stroke="rgb(204,255,204)">
      <path d="M9.8477 44.3506 L98.4766 44.3506 L88.6289 74.3506 L0 74.3506 Z" fill-rule="evenodd" clip-path="url(#clipPath2)" stroke="none"/>
    </g>
    <g font-size="16px" stroke-linecap="butt" transform="matrix(1,0,0,1,15,15)" text-rendering="geometricPrecision" font-family="sans-serif" shape-rendering="geometricPrecision" stroke-miterlimit="1.45">
      <text x="7" xml:space="preserve" y="65.6357" clip-path="url(#clipPath2)" stroke="none">xsd:decimal</text>
      <path fill="none" d="M9.8477 44.3506 L98.4766 44.3506 L88.6289 74.3506 L0 74.3506 Z" fill-rule="evenodd" clip-path="url(#clipPath2)"/>
    </g>
    <g fill="rgb(204,255,204)" text-rendering="geometricPrecision" shape-rendering="geometricPrecision" transform="matrix(1,0,0,1,15,15)" stroke="rgb(204,255,204)">
      <path d="M1449.123 404.3506 L1539.3832 404.3506 L1529.3542 434.3506 L1439.0941 434.3506 Z" fill-rule="evenodd" clip-path="url(#clipPath2)" stroke="none"/>
    </g>
    <g font-size="16px" stroke-linecap="butt" transform="matrix(1,0,0,1,15,15)" text-rendering="geometricPrecision" font-family="sans-serif" shape-rendering="geometricPrecision" stroke-miterlimit="1.45">
      <text x="1446.0938" xml:space="preserve" y="425.6357" clip-path="url(#clipPath2)" stroke="none">xsd:boolean</text>
      <path fill="none" d="M1449.123 404.3506 L1539.3832 404.3506 L1529.3542 434.3506 L1439.0941 434.3506 Z" fill-rule="evenodd" clip-path="url(#clipPath2)"/>
    </g>
    <g fill="rgb(204,255,204)" text-rendering="geometricPrecision" shape-rendering="geometricPrecision" transform="matrix(1,0,0,1,15,15)" stroke="rgb(204,255,204)">
      <path d="M726.2507 404.3506 L800.4725 404.3506 L792.2256 434.3506 L718.0038 434.3506 Z" fill-rule="evenodd" clip-path="url(#clipPath2)" stroke="none"/>
    </g>
    <g font-size="16px" stroke-linecap="butt" transform="matrix(1,0,0,1,15,15)" text-rendering="geometricPrecision" font-family="sans-serif" shape-rendering="geometricPrecision" stroke-miterlimit="1.45">
      <text x="725.0039" xml:space="preserve" y="425.6357" clip-path="url(#clipPath2)" stroke="none">xsd:string</text>
      <path fill="none" d="M726.2507 404.3506 L800.4725 404.3506 L792.2256 434.3506 L718.0038 434.3506 Z" fill-rule="evenodd" clip-path="url(#clipPath2)"/>
    </g>
    <g fill="rgb(204,255,204)" text-rendering="geometricPrecision" shape-rendering="geometricPrecision" transform="matrix(1,0,0,1,15,15)" stroke="rgb(204,255,204)">
      <path d="M2193.7593 44.3506 L2273.585 44.3506 L2264.7156 74.3506 L2184.8899 74.3506 Z" fill-rule="evenodd" clip-path="url(#clipPath2)" stroke="none"/>
    </g>
    <g font-size="16px" stroke-linecap="butt" transform="matrix(1,0,0,1,15,15)" text-rendering="geometricPrecision" font-family="sans-serif" shape-rendering="geometricPrecision" stroke-miterlimit="1.45">
      <text x="2191.8906" xml:space="preserve" y="65.6357" clip-path="url(#clipPath2)" stroke="none">rdfs:Literal</text>
      <path fill="none" d="M2193.7593 44.3506 L2273.585 44.3506 L2264.7156 74.3506 L2184.8899 74.3506 Z" fill-rule="evenodd" clip-path="url(#clipPath2)"/>
    </g>
    <g fill="rgb(204,255,204)" text-rendering="geometricPrecision" shape-rendering="geometricPrecision" transform="matrix(1,0,0,1,15,15)" stroke="rgb(204,255,204)">
      <path d="M1493.7601 44.3506 L1573.5859 44.3506 L1564.7163 74.3506 L1484.8905 74.3506 Z" fill-rule="evenodd" clip-path="url(#clipPath2)" stroke="none"/>
    </g>
    <g font-size="16px" stroke-linecap="butt" transform="matrix(1,0,0,1,15,15)" text-rendering="geometricPrecision" font-family="sans-serif" shape-rendering="geometricPrecision" stroke-miterlimit="1.45">
      <text x="1491.8906" xml:space="preserve" y="65.6357" clip-path="url(#clipPath2)" stroke="none">rdfs:Literal</text>
      <path fill="none" d="M1493.7601 44.3506 L1573.5859 44.3506 L1564.7163 74.3506 L1484.8905 74.3506 Z" fill-rule="evenodd" clip-path="url(#clipPath2)"/>
    </g>
    <g fill="rgb(204,255,204)" text-rendering="geometricPrecision" shape-rendering="geometricPrecision" transform="matrix(1,0,0,1,15,15)" stroke="rgb(204,255,204)">
      <path d="M1893.7604 404.3506 L1973.5864 404.3506 L1964.7168 434.3506 L1884.891 434.3506 Z" fill-rule="evenodd" clip-path="url(#clipPath2)" stroke="none"/>
    </g>
    <g font-size="16px" stroke-linecap="butt" transform="matrix(1,0,0,1,15,15)" text-rendering="geometricPrecision" font-family="sans-serif" shape-rendering="geometricPrecision" stroke-miterlimit="1.45">
      <text x="1891.8906" xml:space="preserve" y="425.6357" clip-path="url(#clipPath2)" stroke="none">rdfs:Literal</text>
      <path fill="none" d="M1893.7604 404.3506 L1973.5864 404.3506 L1964.7168 434.3506 L1884.891 434.3506 Z" fill-rule="evenodd" clip-path="url(#clipPath2)"/>
    </g>
    <g fill="red" text-rendering="geometricPrecision" shape-rendering="geometricPrecision" transform="matrix(1,0,0,1,15,15)" stroke="red">
      <rect x="1704.8867" width="68.7031" height="30" y="804.3506" clip-path="url(#clipPath2)" stroke="none"/>
    </g>
    <g text-rendering="geometricPrecision" stroke-miterlimit="1.45" shape-rendering="geometricPrecision" font-family="sans-serif" transform="matrix(1,0,0,1,15,15)" stroke-linecap="butt">
      <text x="1711.8867" xml:space="preserve" y="824.0645" clip-path="url(#clipPath2)" stroke="none">epo:Buyer</text>
      <rect fill="none" x="1704.8867" width="68.7031" height="30" y="804.3506" clip-path="url(#clipPath2)"/>
    </g>
    <g fill="red" text-rendering="geometricPrecision" shape-rendering="geometricPrecision" transform="matrix(1,0,0,1,15,15)" stroke="red">
      <rect x="2328.2129" width="82.0508" height="30" y="404.3506" clip-path="url(#clipPath2)" stroke="none"/>
    </g>
    <g text-rendering="geometricPrecision" stroke-miterlimit="1.45" shape-rendering="geometricPrecision" font-family="sans-serif" transform="matrix(1,0,0,1,15,15)" stroke-linecap="butt">
      <text x="2335.2129" xml:space="preserve" y="424.0645" clip-path="url(#clipPath2)" stroke="none">epo:Purpose</text>
      <rect fill="none" x="2328.2129" width="82.0508" height="30" y="404.3506" clip-path="url(#clipPath2)"/>
    </g>
    <g fill="red" text-rendering="geometricPrecision" shape-rendering="geometricPrecision" transform="matrix(1,0,0,1,15,15)" stroke="red">
      <rect x="655.2148" width="68.0469" height="30" y="454.3506" clip-path="url(#clipPath2)" stroke="none"/>
    </g>
    <g text-rendering="geometricPrecision" stroke-miterlimit="1.45" shape-rendering="geometricPrecision" font-family="sans-serif" transform="matrix(1,0,0,1,15,15)" stroke-linecap="butt">
      <text x="662.2148" xml:space="preserve" y="474.0645" clip-path="url(#clipPath2)" stroke="none">epo:Value</text>
      <rect fill="none" x="655.2148" width="68.0469" height="30" y="454.3506" clip-path="url(#clipPath2)"/>
    </g>
    <g fill="red" text-rendering="geometricPrecision" shape-rendering="geometricPrecision" transform="matrix(1,0,0,1,15,15)" stroke="red">
      <rect x="1980.8721" width="116.7324" height="30" y="454.3506" clip-path="url(#clipPath2)" stroke="none"/>
    </g>
    <g text-rendering="geometricPrecision" stroke-miterlimit="1.45" shape-rendering="geometricPrecision" font-family="sans-serif" transform="matrix(1,0,0,1,15,15)" stroke-linecap="butt">
      <text x="1987.8721" xml:space="preserve" y="474.0645" clip-path="url(#clipPath2)" stroke="none">anac-onto:Identifier</text>
      <rect fill="none" x="1980.8721" width="116.7324" height="30" y="454.3506" clip-path="url(#clipPath2)"/>
    </g>
    <g fill="red" text-rendering="geometricPrecision" shape-rendering="geometricPrecision" transform="matrix(1,0,0,1,15,15)" stroke="red">
      <rect x="359.8828" width="78.7109" height="30" y="404.3506" clip-path="url(#clipPath2)" stroke="none"/>
    </g>
    <g text-rendering="geometricPrecision" stroke-miterlimit="1.45" shape-rendering="geometricPrecision" font-family="sans-serif" transform="matrix(1,0,0,1,15,15)" stroke-linecap="butt">
      <text x="366.8828" xml:space="preserve" y="424.0645" clip-path="url(#clipPath2)" stroke="none">epo:Amount</text>
      <rect fill="none" x="359.8828" width="78.7109" height="30" y="404.3506" clip-path="url(#clipPath2)"/>
    </g>
    <g fill="red" text-rendering="geometricPrecision" shape-rendering="geometricPrecision" transform="matrix(1,0,0,1,15,15)" stroke="red">
      <rect x="1832.2197" width="54.0371" height="30" y="454.3506" clip-path="url(#clipPath2)" stroke="none"/>
    </g>
    <g text-rendering="geometricPrecision" stroke-miterlimit="1.45" shape-rendering="geometricPrecision" font-family="sans-serif" transform="matrix(1,0,0,1,15,15)" stroke-linecap="butt">
      <text x="1839.2197" xml:space="preserve" y="474.0645" clip-path="url(#clipPath2)" stroke="none">epo:Lot</text>
      <rect fill="none" x="1832.2197" width="54.0371" height="30" y="454.3506" clip-path="url(#clipPath2)"/>
    </g>
    <g fill="red" text-rendering="geometricPrecision" shape-rendering="geometricPrecision" transform="matrix(1,0,0,1,15,15)" stroke="red">
      <rect x="1766.2197" width="66.0371" height="30" y="404.3506" clip-path="url(#clipPath2)" stroke="none"/>
    </g>
    <g text-rendering="geometricPrecision" stroke-miterlimit="1.45" shape-rendering="geometricPrecision" font-family="sans-serif" transform="matrix(1,0,0,1,15,15)" stroke-linecap="butt">
      <text x="1773.2197" xml:space="preserve" y="424.0645" clip-path="url(#clipPath2)" stroke="none">pcapit:Lot</text>
      <rect fill="none" x="1766.2197" width="66.0371" height="30" y="404.3506" clip-path="url(#clipPath2)"/>
    </g>
    <g fill="red" text-rendering="geometricPrecision" shape-rendering="geometricPrecision" transform="matrix(1,0,0,1,15,15)" stroke="red">
      <rect x="1076.8779" width="104.7207" height="30" y="804.3506" clip-path="url(#clipPath2)" stroke="none"/>
    </g>
    <g text-rendering="geometricPrecision" stroke-miterlimit="1.45" shape-rendering="geometricPrecision" font-family="sans-serif" transform="matrix(1,0,0,1,15,15)" stroke-linecap="butt">
      <text x="1083.8779" xml:space="preserve" y="824.0645" clip-path="url(#clipPath2)" stroke="none">pcapit:Procedure</text>
      <rect fill="none" x="1076.8779" width="104.7207" height="30" y="804.3506" clip-path="url(#clipPath2)"/>
    </g>
    <g fill="red" text-rendering="geometricPrecision" shape-rendering="geometricPrecision" transform="matrix(1,0,0,1,15,15)" stroke="red">
      <rect x="1565.8662" width="146.7441" height="30" y="754.3506" clip-path="url(#clipPath2)" stroke="none"/>
    </g>
    <g text-rendering="geometricPrecision" stroke-miterlimit="1.45" shape-rendering="geometricPrecision" font-family="sans-serif" transform="matrix(1,0,0,1,15,15)" stroke-linecap="butt">
      <text x="1572.8662" xml:space="preserve" y="774.0645" clip-path="url(#clipPath2)" stroke="none">anac-onto:ProcuringRole</text>
      <rect fill="none" x="1565.8662" width="146.7441" height="30" y="754.3506" clip-path="url(#clipPath2)"/>
    </g>
    <g fill="red" text-rendering="geometricPrecision" shape-rendering="geometricPrecision" transform="matrix(1,0,0,1,15,15)" stroke="red">
      <rect x="1002.8779" width="92.7207" height="30" y="754.3506" clip-path="url(#clipPath2)" stroke="none"/>
    </g>
    <g text-rendering="geometricPrecision" stroke-miterlimit="1.45" shape-rendering="geometricPrecision" font-family="sans-serif" transform="matrix(1,0,0,1,15,15)" stroke-linecap="butt">
      <text x="1009.8779" xml:space="preserve" y="774.0645" clip-path="url(#clipPath2)" stroke="none">epo:Procedure</text>
      <rect fill="none" x="1002.8779" width="92.7207" height="30" y="754.3506" clip-path="url(#clipPath2)"/>
      <path fill="none" d="M1629.4989 469.3506 L1559.2383 469.3506 L1559.2383 419.3506 L1699.2383 419.3506 L1699.2383 446.3164" clip-path="url(#clipPath2)" stroke="navy"/>
      <path fill="navy" d="M1637.4989 469.3506 C1637.4989 471.5597 1635.708 473.3506 1633.4989 473.3506 C1631.2898 473.3506 1629.4989 471.5597 1629.4989 469.3506 C1629.4989 467.1414 1631.2898 465.3506 1633.4989 465.3506 C1635.708 465.3506 1637.4989 467.1414 1637.4989 469.3506 Z" clip-path="url(#clipPath2)" stroke="none"/>
      <path fill="navy" d="M1699.2383 454.3164 L1704.2383 442.3164 L1699.2383 445.3164 L1694.2383 442.3164 Z" clip-path="url(#clipPath2)" stroke="none"/>
      <rect x="1573.2119" y="410" clip-path="url(#clipPath2)" fill="white" width="112.0527" height="18.7012" stroke="none"/>
      <text x="1575.2119" xml:space="preserve" y="424.0645" clip-path="url(#clipPath2)" stroke="none">anac-onto:isRoleFor</text>
      <path fill="none" d="M1436.5221 128.3506 L1436.5221 169.3506 L1869.7246 169.3506 L1869.7246 132.3506" clip-path="url(#clipPath2)" stroke="navy"/>
      <path fill="navy" d="M1436.5221 120.3506 C1438.7312 120.3506 1440.5221 122.1414 1440.5221 124.3506 C1440.5221 126.5597 1438.7312 128.3506 1436.5221 128.3506 C1434.313 128.3506 1432.5221 126.5597 1432.5221 124.3506 C1432.5221 122.1414 1434.313 120.3506 1436.5221 120.3506 Z" clip-path="url(#clipPath2)" stroke="none"/>
      <path fill="navy" d="M1869.7246 124.3506 L1864.7246 136.3506 L1869.7246 133.3506 L1874.7246 136.3506 Z" clip-path="url(#clipPath2)" stroke="none"/>
      <rect x="1437.5221" y="160" clip-path="url(#clipPath2)" fill="white" width="101.3887" height="18.7012" stroke="none"/>
      <text x="1439.5221" xml:space="preserve" y="174.0645" clip-path="url(#clipPath2)" stroke="none">anac-onto:hasCIG</text>
      <path fill="none" d="M1699.2383 488.3506 L1699.2383 589.3506 L1139.2383 589.3506 L1139.2383 492.3506" clip-path="url(#clipPath2)" stroke="navy"/>
      <path fill="navy" d="M1699.2383 480.3506 C1701.4474 480.3506 1703.2383 482.1414 1703.2383 484.3506 C1703.2383 486.5597 1701.4474 488.3506 1699.2383 488.3506 C1697.0292 488.3506 1695.2383 486.5597 1695.2383 484.3506 C1695.2383 482.1414 1697.0292 480.3506 1699.2383 480.3506 Z" clip-path="url(#clipPath2)" stroke="none"/>
      <path fill="navy" d="M1139.2383 484.3506 L1134.2383 496.3506 L1139.2383 493.3506 L1144.2383 496.3506 Z" clip-path="url(#clipPath2)" stroke="none"/>
      <rect x="1544.8242" y="580" clip-path="url(#clipPath2)" fill="white" width="153.4141" height="18.7012" stroke="none"/>
      <text x="1546.8242" xml:space="preserve" y="594.0645" clip-path="url(#clipPath2)" stroke="none">anac-onto:isResponsibleFor</text>
      <path fill="none" d="M1399.2383 128.3506 L1399.2383 399.3506 L1193.7148 399.3506 L1193.7148 446.3237" clip-path="url(#clipPath2)" stroke="navy"/>
      <path fill="navy" d="M1399.2383 120.3506 C1401.4474 120.3506 1403.2383 122.1414 1403.2383 124.3506 C1403.2383 126.5597 1401.4474 128.3506 1399.2383 128.3506 C1397.0292 128.3506 1395.2383 126.5597 1395.2383 124.3506 C1395.2383 122.1414 1397.0292 120.3506 1399.2383 120.3506 Z" clip-path="url(#clipPath2)" stroke="none"/>
      <path fill="navy" d="M1193.7148 454.3237 L1198.7148 442.3237 L1193.7148 445.3237 L1188.7148 442.3237 Z" clip-path="url(#clipPath2)" stroke="none"/>
      <rect x="1334.8652" y="257.0625" clip-path="url(#clipPath2)" fill="white" width="128.7461" height="18.7012" stroke="none"/>
      <text x="1336.8652" xml:space="preserve" y="271.127" clip-path="url(#clipPath2)" stroke="none">anac-onto:isSpecifiedIn</text>
      <path fill="none" d="M1399.2383 124.3506 L1399.2383 239.3506 L1309.2383 239.3506 L1309.2383 369.3506 L1139.2383 369.3506 L1139.2383 446.3091" clip-path="url(#clipPath2)"/>
      <path d="M1139.2383 454.3091 L1144.2383 442.3091 L1139.2383 445.3091 L1134.2383 442.3091 Z" clip-path="url(#clipPath2)" stroke="none"/>
      <rect x="1265.8916" y="313.2165" clip-path="url(#clipPath2)" fill="white" width="86.6934" height="18.7012" stroke="none"/>
      <text x="1267.8916" xml:space="preserve" y="327.2809" clip-path="url(#clipPath2)" stroke="none">owl:disjointWith</text>
      <path fill="none" d="M1193.7148 488.3506 L1193.7148 529.3506 L1655.4362 529.3506 L1655.4362 492.3506" clip-path="url(#clipPath2)" stroke="navy"/>
      <path fill="navy" d="M1193.7148 480.3506 C1195.924 480.3506 1197.7148 482.1414 1197.7148 484.3506 C1197.7148 486.5597 1195.924 488.3506 1193.7148 488.3506 C1191.5057 488.3506 1189.7148 486.5597 1189.7148 484.3506 C1189.7148 482.1414 1191.5057 480.3506 1193.7148 480.3506 Z" clip-path="url(#clipPath2)" stroke="none"/>
      <path fill="navy" d="M1655.4362 484.3506 L1650.4362 496.3506 L1655.4362 493.3506 L1660.4362 496.3506 Z" clip-path="url(#clipPath2)" stroke="none"/>
      <rect x="1194.7148" y="520" clip-path="url(#clipPath2)" fill="white" width="156.0742" height="18.7012" stroke="none"/>
      <text x="1196.7148" xml:space="preserve" y="534.0645" clip-path="url(#clipPath2)" stroke="none">anac-onto:isResponsibilityOf</text>
      <path fill="none" d="M1084.7617 450.3018 L1084.7617 429.3506 L1089.2383 429.3506 L1089.2383 149.3506 L1361.9545 149.3506 L1361.9545 132.3506" clip-path="url(#clipPath2)" stroke="navy"/>
      <path fill="navy" d="M1084.7617 458.3018 C1082.5526 458.3018 1080.7617 456.5109 1080.7617 454.3018 C1080.7617 452.0926 1082.5526 450.3018 1084.7617 450.3018 C1086.9708 450.3018 1088.7617 452.0926 1088.7617 454.3018 C1088.7617 456.5109 1086.9708 458.3018 1084.7617 458.3018 Z" clip-path="url(#clipPath2)" stroke="none"/>
      <path fill="navy" d="M1361.9545 124.3506 L1356.9545 136.3506 L1361.9545 133.3506 L1366.9545 136.3506 Z" clip-path="url(#clipPath2)" stroke="none"/>
      <rect x="1035.541" y="317.0427" clip-path="url(#clipPath2)" fill="white" width="107.3945" height="18.7012" stroke="none"/>
      <text x="1037.541" xml:space="preserve" y="331.1071" clip-path="url(#clipPath2)" stroke="none">anac-onto:specifies</text>
      <path fill="none" d="M1084.7617 450.3018 L1084.7617 429.3506 L1089.2383 429.3506 L1089.2383 349.3506 L1199.2383 349.3506 L1199.2383 209.3506 L2289.2383 209.3506 L2289.2383 149.3506 L2291.9375 149.3506 L2291.9375 132.3506" clip-path="url(#clipPath2)" stroke="navy"/>
      <path fill="navy" d="M1084.7617 458.3018 C1082.5526 458.3018 1080.7617 456.5109 1080.7617 454.3018 C1080.7617 452.0926 1082.5526 450.3018 1084.7617 450.3018 C1086.9708 450.3018 1088.7617 452.0926 1088.7617 454.3018 C1088.7617 456.5109 1086.9708 458.3018 1084.7617 458.3018 Z" clip-path="url(#clipPath2)" stroke="none"/>
      <path fill="navy" d="M2291.9375 124.3506 L2286.9375 136.3506 L2291.9375 133.3506 L2296.9375 136.3506 Z" clip-path="url(#clipPath2)" stroke="none"/>
      <rect x="1117.8584" y="270" clip-path="url(#clipPath2)" fill="white" width="162.7598" height="18.7012" stroke="none"/>
      <text x="1119.8584" xml:space="preserve" y="284.0645" clip-path="url(#clipPath2)" stroke="none">anac-onto:hasOverallPurpose</text>
      <path fill="none" d="M1399.2383 90.3091 L1399.2383 9.3506 L2329.2383 9.3506 L2329.2383 86.3091" clip-path="url(#clipPath2)" stroke="navy"/>
      <path fill="navy" d="M1399.2383 98.3091 C1397.0292 98.3091 1395.2383 96.5182 1395.2383 94.3091 C1395.2383 92.0999 1397.0292 90.3091 1399.2383 90.3091 C1401.4474 90.3091 1403.2383 92.0999 1403.2383 94.3091 C1403.2383 96.5182 1401.4474 98.3091 1399.2383 98.3091 Z" clip-path="url(#clipPath2)" stroke="none"/>
      <path fill="navy" d="M2329.2383 94.3091 L2334.2383 82.3091 L2329.2383 85.3091 L2324.2383 82.3091 Z" clip-path="url(#clipPath2)" stroke="none"/>
      <rect x="1400.2383" y="0" clip-path="url(#clipPath2)" fill="white" width="124.75" height="18.7012" stroke="none"/>
      <text x="1402.2383" xml:space="preserve" y="14.0645" clip-path="url(#clipPath2)" stroke="none">anac-onto:hasPurpose</text>
      <path fill="none" d="M1339.2627 109.3506 L1139.2383 109.3506 L1139.2383 59.3506 L842.5039 59.3506" clip-path="url(#clipPath2)" stroke="navy"/>
      <path fill="navy" d="M1347.2627 109.3506 C1347.2627 111.5597 1345.4718 113.3506 1343.2627 113.3506 C1341.0536 113.3506 1339.2627 111.5597 1339.2627 109.3506 C1339.2627 107.1414 1341.0536 105.3506 1343.2627 105.3506 C1345.4718 105.3506 1347.2627 107.1414 1347.2627 109.3506 Z" clip-path="url(#clipPath2)" stroke="none"/>
      <path fill="navy" d="M834.5039 59.3506 L846.5039 64.3506 L843.5039 59.3506 L846.5039 54.3506 Z" clip-path="url(#clipPath2)" stroke="none"/>
      <rect x="1154.6621" y="100" clip-path="url(#clipPath2)" fill="white" width="164.1016" height="18.7012" stroke="none"/>
      <text x="1156.6621" xml:space="preserve" y="114.0645" clip-path="url(#clipPath2)" stroke="none">anac-onto:hasEstimatedValue</text>
      <path fill="none" d="M1084.7617 450.3018 L1084.7617 429.3506 L1089.2383 429.3506 L1089.2383 349.3506 L799.2383 349.3506 L799.2383 99.3506 L801.8711 99.3506 L801.8711 82.3506" clip-path="url(#clipPath2)" stroke="navy"/>
      <path fill="navy" d="M1084.7617 458.3018 C1082.5526 458.3018 1080.7617 456.5109 1080.7617 454.3018 C1080.7617 452.0926 1082.5526 450.3018 1084.7617 450.3018 C1086.9708 450.3018 1088.7617 452.0926 1088.7617 454.3018 C1088.7617 456.5109 1086.9708 458.3018 1084.7617 458.3018 Z" clip-path="url(#clipPath2)" stroke="none"/>
      <path fill="navy" d="M801.8711 74.3506 L796.8711 86.3506 L801.8711 83.3506 L806.8711 86.3506 Z" clip-path="url(#clipPath2)" stroke="none"/>
      <rect x="717.1875" y="272.3247" clip-path="url(#clipPath2)" fill="white" width="164.1016" height="18.7012" stroke="none"/>
      <text x="719.1875" xml:space="preserve" y="286.3892" clip-path="url(#clipPath2)" stroke="none">anac-onto:hasEstimatedValue</text>
      <path fill="none" d="M699.9251 59.3506 L509.2383 59.3506 L509.2383 109.3506 L479.6133 109.3506" clip-path="url(#clipPath2)" stroke="navy"/>
      <path fill="navy" d="M707.9251 59.3506 C707.9251 61.5597 706.1343 63.3506 703.9251 63.3506 C701.7159 63.3506 699.9251 61.5597 699.9251 59.3506 C699.9251 57.1414 701.7159 55.3506 703.9251 55.3506 C706.1343 55.3506 707.9251 57.1414 707.9251 59.3506 Z" clip-path="url(#clipPath2)" stroke="none"/>
      <path fill="navy" d="M471.6133 109.3506 L483.6133 114.3506 L480.6133 109.3506 L483.6133 104.3506 Z" clip-path="url(#clipPath2)" stroke="none"/>
      <rect x="522.333" y="50" clip-path="url(#clipPath2)" fill="white" width="159.4199" height="18.7012" stroke="none"/>
      <text x="524.333" xml:space="preserve" y="64.0645" clip-path="url(#clipPath2)" stroke="none">anac-onto:hasOverallAmount</text>
      <path fill="none" d="M322.815 109.3506 L129.2383 109.3506 L129.2383 59.3506 L108.5703 59.3506" clip-path="url(#clipPath2)" stroke="green"/>
      <path fill="green" d="M330.815 109.3506 C330.815 111.5597 329.0242 113.3506 326.815 113.3506 C324.6059 113.3506 322.815 111.5597 322.815 109.3506 C322.815 107.1414 324.6059 105.3506 326.815 105.3506 C329.0242 105.3506 330.815 107.1414 330.815 109.3506 Z" clip-path="url(#clipPath2)" stroke="none"/>
      <path fill="white" d="M93.5703 59.3506 L109.5703 65.3506 L109.5703 53.3506 Z" clip-path="url(#clipPath2)" stroke="none"/>
      <path fill="none" d="M93.5703 59.3506 L109.5703 65.3506 L109.5703 53.3506 Z" clip-path="url(#clipPath2)" stroke="green"/>
      <rect x="147.4375" y="100" clip-path="url(#clipPath2)" fill="white" width="152.1016" height="18.7012" stroke="none"/>
      <text x="149.4375" xml:space="preserve" y="114.0645" clip-path="url(#clipPath2)" stroke="none">anac-onto:hasAmountValue</text>
      <path fill="none" d="M1224.9531 469.3506 L1399.2383 469.3506 L1399.2383 419.3506 L1429.0812 419.3506" clip-path="url(#clipPath2)" stroke="green"/>
      <path fill="green" d="M1216.9531 469.3506 C1216.9531 467.1414 1218.744 465.3506 1220.9531 465.3506 C1223.1622 465.3506 1224.9531 467.1414 1224.9531 469.3506 C1224.9531 471.5597 1223.1622 473.3506 1220.9531 473.3506 C1218.744 473.3506 1216.9531 471.5597 1216.9531 469.3506 Z" clip-path="url(#clipPath2)" stroke="none"/>
      <path fill="white" d="M1444.0812 419.3506 L1428.0812 413.3506 L1428.0812 425.3506 Z" clip-path="url(#clipPath2)" stroke="none"/>
      <path fill="none" d="M1444.0812 419.3506 L1428.0812 413.3506 L1428.0812 425.3506 Z" clip-path="url(#clipPath2)" stroke="green"/>
      <rect x="1275.5273" y="460" clip-path="url(#clipPath2)" fill="white" width="122.7109" height="18.7012" stroke="none"/>
      <text x="1277.5273" xml:space="preserve" y="474.0645" clip-path="url(#clipPath2)" stroke="none">anac-onto:isSmartCIG</text>
      <path fill="none" d="M1053.4968 469.3506 L839.2383 469.3506 L839.2383 419.3506 L811.3789 419.3506" clip-path="url(#clipPath2)" stroke="green"/>
      <path fill="green" d="M1061.4968 469.3506 C1061.4968 471.5597 1059.7059 473.3506 1057.4968 473.3506 C1055.2877 473.3506 1053.4968 471.5597 1053.4968 469.3506 C1053.4968 467.1414 1055.2877 465.3506 1057.4968 465.3506 C1059.7059 465.3506 1061.4968 467.1414 1061.4968 469.3506 Z" clip-path="url(#clipPath2)" stroke="none"/>
      <path fill="white" d="M796.3789 419.3506 L812.3789 425.3506 L812.3789 413.3506 Z" clip-path="url(#clipPath2)" stroke="none"/>
      <path fill="none" d="M796.3789 419.3506 L812.3789 425.3506 L812.3789 413.3506 Z" clip-path="url(#clipPath2)" stroke="green"/>
      <rect x="856.7754" y="460" clip-path="url(#clipPath2)" fill="white" width="174.0859" height="18.7012" stroke="none"/>
      <text x="858.7754" xml:space="preserve" y="474.0645" clip-path="url(#clipPath2)" stroke="none">anac-onto:territorialAreaContext</text>
      <path fill="none" d="M1962.2656 109.3506 L2149.2383 109.3506 L2149.2383 59.3506 L2174.2969 59.3506" clip-path="url(#clipPath2)" stroke="green"/>
      <path fill="green" d="M1954.2656 109.3506 C1954.2656 107.1414 1956.0565 105.3506 1958.2656 105.3506 C1960.4747 105.3506 1962.2656 107.1414 1962.2656 109.3506 C1962.2656 111.5597 1960.4747 113.3506 1958.2656 113.3506 C1956.0565 113.3506 1954.2656 111.5597 1954.2656 109.3506 Z" clip-path="url(#clipPath2)" stroke="none"/>
      <path fill="white" d="M2189.2969 59.3506 L2173.2969 53.3506 L2173.2969 65.3506 Z" clip-path="url(#clipPath2)" stroke="none"/>
      <path fill="none" d="M2189.2969 59.3506 L2173.2969 53.3506 L2173.2969 65.3506 Z" clip-path="url(#clipPath2)" stroke="green"/>
      <rect x="1979.9287" y="100" clip-path="url(#clipPath2)" fill="white" width="156.7715" height="18.7012" stroke="none"/>
      <text x="1981.9287" xml:space="preserve" y="114.0645" clip-path="url(#clipPath2)" stroke="none">anac-onto:hasIdentifierValue</text>
      <path fill="none" d="M1836.1827 109.3506 L1609.2383 109.3506 L1609.2383 59.3506 L1584.1797 59.3506" clip-path="url(#clipPath2)" stroke="green"/>
      <path fill="green" d="M1844.1827 109.3506 C1844.1827 111.5597 1842.3918 113.3506 1840.1827 113.3506 C1837.9736 113.3506 1836.1827 111.5597 1836.1827 109.3506 C1836.1827 107.1414 1837.9736 105.3506 1840.1827 105.3506 C1842.3918 105.3506 1844.1827 107.1414 1844.1827 109.3506 Z" clip-path="url(#clipPath2)" stroke="none"/>
      <path fill="white" d="M1569.1797 59.3506 L1585.1797 65.3506 L1585.1797 53.3506 Z" clip-path="url(#clipPath2)" stroke="none"/>
      <path fill="none" d="M1569.1797 59.3506 L1585.1797 65.3506 L1585.1797 53.3506 Z" clip-path="url(#clipPath2)" stroke="green"/>
      <rect x="1622.1064" y="100" clip-path="url(#clipPath2)" fill="white" width="196.1113" height="18.7012" stroke="none"/>
      <text x="1624.1064" xml:space="preserve" y="114.0645" clip-path="url(#clipPath2)" stroke="none">anac-onto:hasSchemaAgencyName</text>
      <path fill="none" d="M1928.752 128.3506 L1928.752 149.3506 L1929.2383 149.3506 L1929.2383 389.3506" clip-path="url(#clipPath2)" stroke="green"/>
      <path fill="green" d="M1928.752 120.3506 C1930.9611 120.3506 1932.752 122.1414 1932.752 124.3506 C1932.752 126.5597 1930.9611 128.3506 1928.752 128.3506 C1926.5428 128.3506 1924.752 126.5597 1924.752 124.3506 C1924.752 122.1414 1926.5428 120.3506 1928.752 120.3506 Z" clip-path="url(#clipPath2)" stroke="none"/>
      <path fill="white" d="M1929.2383 404.3506 L1935.2383 388.3506 L1923.2383 388.3506 Z" clip-path="url(#clipPath2)" stroke="none"/>
      <path fill="none" d="M1929.2383 404.3506 L1935.2383 388.3506 L1923.2383 388.3506 Z" clip-path="url(#clipPath2)" stroke="green"/>
      <rect x="1851.1953" y="319.231" clip-path="url(#clipPath2)" fill="white" width="156.0859" height="18.7012" stroke="none"/>
      <text x="1853.1953" xml:space="preserve" y="333.2954" clip-path="url(#clipPath2)" stroke="none">anac-onto:hasSchemaName</text>
      <path fill="none" d="M1743.0404 484.3506 L1743.0404 509.3506 L1739.2383 509.3506 L1739.2383 796.3146" clip-path="url(#clipPath2)"/>
      <path d="M1739.2383 804.3146 L1744.2383 792.3146 L1739.2383 795.3146 L1734.2383 792.3146 Z" clip-path="url(#clipPath2)" stroke="none"/>
      <rect x="1694.5586" y="718.7015" clip-path="url(#clipPath2)" fill="white" width="89.3594" height="18.7012" stroke="none"/>
      <text x="1696.5586" xml:space="preserve" y="732.7659" clip-path="url(#clipPath2)" stroke="none">rdfs:subClassOf</text>
      <path fill="none" d="M2366.5391 124.3506 L2366.5391 149.3506 L2369.2383 149.3506 L2369.2383 396.3195" clip-path="url(#clipPath2)"/>
      <path d="M2369.2383 404.3195 L2374.2383 392.3195 L2369.2383 395.3195 L2364.2383 392.3195 Z" clip-path="url(#clipPath2)" stroke="none"/>
      <rect x="2324.5586" y="319.231" clip-path="url(#clipPath2)" fill="white" width="89.3594" height="18.7012" stroke="none"/>
      <text x="2326.5586" xml:space="preserve" y="333.2954" clip-path="url(#clipPath2)" stroke="none">rdfs:subClassOf</text>
      <path fill="none" d="M736.6055 74.3506 L736.6055 129.3506 L689.2383 129.3506 L689.2383 446.3109" clip-path="url(#clipPath2)"/>
      <path d="M689.2383 454.3109 L694.2383 442.3109 L689.2383 445.3109 L684.2383 442.3109 Z" clip-path="url(#clipPath2)" stroke="none"/>
      <rect x="644.5586" y="314.8342" clip-path="url(#clipPath2)" fill="white" width="89.3594" height="18.7012" stroke="none"/>
      <text x="646.5586" xml:space="preserve" y="328.8987" clip-path="url(#clipPath2)" stroke="none">rdfs:subClassOf</text>
      <path fill="none" d="M1928.752 124.3506 L1928.752 149.3506 L1929.2383 149.3506 L1929.2383 239.3506 L2039.2383 239.3506 L2039.2383 446.3243" clip-path="url(#clipPath2)"/>
      <path d="M2039.2383 454.3243 L2044.2383 442.3243 L2039.2383 445.3243 L2034.2383 442.3243 Z" clip-path="url(#clipPath2)" stroke="none"/>
      <rect x="1994.5586" y="258.868" clip-path="url(#clipPath2)" fill="white" width="89.3594" height="18.7012" stroke="none"/>
      <text x="1996.5586" xml:space="preserve" y="272.9324" clip-path="url(#clipPath2)" stroke="none">rdfs:subClassOf</text>
      <path fill="none" d="M399.2383 124.3506 L399.2383 396.3164" clip-path="url(#clipPath2)"/>
      <path d="M399.2383 404.3164 L404.2383 392.3164 L399.2383 395.3164 L394.2383 392.3164 Z" clip-path="url(#clipPath2)" stroke="none"/>
      <rect x="354.5586" y="255" clip-path="url(#clipPath2)" fill="white" width="89.3594" height="18.7012" stroke="none"/>
      <text x="356.5586" xml:space="preserve" y="269.0645" clip-path="url(#clipPath2)" stroke="none">rdfs:subClassOf</text>
      <path fill="none" d="M1399.2383 124.3506 L1399.2383 239.3506 L1819.2383 239.3506 L1819.2383 349.3506 L1859.2383 349.3506 L1859.2383 446.325" clip-path="url(#clipPath2)"/>
      <path d="M1859.2383 454.325 L1864.2383 442.325 L1859.2383 445.325 L1854.2383 442.325 Z" clip-path="url(#clipPath2)" stroke="none"/>
      <rect x="1774.5586" y="262.6753" clip-path="url(#clipPath2)" fill="white" width="89.3594" height="18.7012" stroke="none"/>
      <text x="1776.5586" xml:space="preserve" y="276.7397" clip-path="url(#clipPath2)" stroke="none">rdfs:subClassOf</text>
      <path fill="none" d="M1399.2383 124.3506 L1399.2383 239.3506 L1749.2383 239.3506 L1749.2383 349.3506 L1799.2383 349.3506 L1799.2383 396.3237" clip-path="url(#clipPath2)"/>
      <path d="M1799.2383 404.3237 L1804.2383 392.3237 L1799.2383 395.3237 L1794.2383 392.3237 Z" clip-path="url(#clipPath2)" stroke="none"/>
      <rect x="1704.5586" y="307.3247" clip-path="url(#clipPath2)" fill="white" width="89.3594" height="18.7012" stroke="none"/>
      <text x="1706.5586" xml:space="preserve" y="321.3892" clip-path="url(#clipPath2)" stroke="none">rdfs:subClassOf</text>
      <path fill="none" d="M1084.7617 484.3506 L1084.7617 619.3506 L1089.2383 619.3506 L1089.2383 639.3506 L1129.2383 639.3506 L1129.2383 796.3103" clip-path="url(#clipPath2)"/>
      <path d="M1129.2383 804.3103 L1134.2383 792.3103 L1129.2383 795.3103 L1124.2383 792.3103 Z" clip-path="url(#clipPath2)" stroke="none"/>
      <rect x="1084.5586" y="707.9375" clip-path="url(#clipPath2)" fill="white" width="89.3594" height="18.7012" stroke="none"/>
      <text x="1086.5586" xml:space="preserve" y="722.002" clip-path="url(#clipPath2)" stroke="none">rdfs:subClassOf</text>
      <path fill="none" d="M1743.0404 484.3506 L1743.0404 509.3506 L1739.2383 509.3506 L1739.2383 639.3506 L1639.2383 639.3506 L1639.2383 746.3225" clip-path="url(#clipPath2)"/>
      <path d="M1639.2383 754.3225 L1644.2383 742.3225 L1639.2383 745.3225 L1634.2383 742.3225 Z" clip-path="url(#clipPath2)" stroke="none"/>
      <rect x="1594.5586" y="661.644" clip-path="url(#clipPath2)" fill="white" width="89.3594" height="18.7012" stroke="none"/>
      <text x="1596.5586" xml:space="preserve" y="675.7085" clip-path="url(#clipPath2)" stroke="none">rdfs:subClassOf</text>
      <path fill="none" d="M1084.7617 484.3506 L1084.7617 619.3506 L1089.2383 619.3506 L1089.2383 639.3506 L1049.2383 639.3506 L1049.2383 746.3225" clip-path="url(#clipPath2)"/>
      <path d="M1049.2383 754.3225 L1054.2383 742.3225 L1049.2383 745.3225 L1044.2383 742.3225 Z" clip-path="url(#clipPath2)" stroke="none"/>
      <rect x="1004.5586" y="661.644" clip-path="url(#clipPath2)" fill="white" width="89.3594" height="18.7012" stroke="none"/>
      <text x="1006.5586" xml:space="preserve" y="675.7085" clip-path="url(#clipPath2)" stroke="none">rdfs:subClassOf</text>
    </g>
  </g>
</svg>
