<?xml version="1.0" encoding="UTF-8"?><svg xmlns="http://www.w3.org/2000/svg" xmlns:xlink="http://www.w3.org/1999/xlink" fill-opacity="1" color-rendering="auto" color-interpolation="auto" text-rendering="auto" stroke="black" stroke-linecap="square" width="2430" stroke-miterlimit="10" shape-rendering="auto" stroke-opacity="1" fill="black" stroke-dasharray="none" font-weight="normal" stroke-width="1" height="487" font-family="'Dialog'" font-style="normal" stroke-linejoin="miter" font-size="12px" stroke-dashoffset="0" image-rendering="auto">
  <!--Generated by ySVG 2.5-->
  <defs id="genericDefs"/>
  <g>
    <defs id="defs1">
      <clipPath clipPathUnits="userSpaceOnUse" id="clipPath1">
        <path d="M0 0 L2430 0 L2430 487 L0 487 L0 0 Z"/>
      </clipPath>
      <clipPath clipPathUnits="userSpaceOnUse" id="clipPath2">
        <path d="M-15 -15 L2415 -15 L2415 472 L-15 472 L-15 -15 Z"/>
      </clipPath>
    </defs>
    <g fill="white" text-rendering="geometricPrecision" shape-rendering="geometricPrecision" transform="translate(15,15)" stroke="white">
      <rect x="-15" width="2430" height="487" y="-15" clip-path="url(#clipPath2)" stroke="none"/>
    </g>
    <g fill="yellow" text-rendering="geometricPrecision" shape-rendering="geometricPrecision" transform="matrix(1,0,0,1,15,15)" stroke="yellow">
      <rect x="2093.8028" y="166.8008" clip-path="url(#clipPath2)" width="164.16" rx="4" ry="4" height="30" stroke="none"/>
    </g>
    <g font-size="16px" stroke-linecap="butt" transform="matrix(1,0,0,1,15,15)" text-rendering="geometricPrecision" font-family="sans-serif" shape-rendering="geometricPrecision" stroke-miterlimit="1.45">
      <text x="2101.168" xml:space="preserve" y="188.0859" clip-path="url(#clipPath2)" stroke="none">anac-onto:Procedure</text>
      <rect x="2093.8028" y="166.8008" clip-path="url(#clipPath2)" fill="none" width="164.16" rx="4" ry="4" height="30"/>
    </g>
    <g fill="yellow" text-rendering="geometricPrecision" shape-rendering="geometricPrecision" transform="matrix(1,0,0,1,15,15)" stroke="yellow">
      <rect x="317.8828" y="376.8008" clip-path="url(#clipPath2)" width="216" rx="4" ry="4" height="30" stroke="none"/>
    </g>
    <g font-size="16px" stroke-linecap="butt" transform="matrix(1,0,0,1,15,15)" text-rendering="geometricPrecision" font-family="sans-serif" shape-rendering="geometricPrecision" stroke-miterlimit="1.45">
      <text x="322.7148" xml:space="preserve" y="398.0859" clip-path="url(#clipPath2)" stroke="none">anac-onto:ProcedureNumber</text>
      <rect x="317.8828" y="376.8008" clip-path="url(#clipPath2)" fill="none" width="216" rx="4" ry="4" height="30"/>
    </g>
    <g fill="yellow" text-rendering="geometricPrecision" shape-rendering="geometricPrecision" transform="matrix(1,0,0,1,15,15)" stroke="yellow">
      <rect x="2252.4428" y="426.8008" clip-path="url(#clipPath2)" width="146.88" rx="4" ry="4" height="30" stroke="none"/>
    </g>
    <g font-size="16px" stroke-linecap="butt" transform="matrix(1,0,0,1,15,15)" text-rendering="geometricPrecision" font-family="sans-serif" shape-rendering="geometricPrecision" stroke-miterlimit="1.45">
      <text x="2258.2812" xml:space="preserve" y="448.0859" clip-path="url(#clipPath2)" stroke="none">anac-onto:Purpose</text>
      <rect x="2252.4428" y="426.8008" clip-path="url(#clipPath2)" fill="none" width="146.88" rx="4" ry="4" height="30"/>
    </g>
    <g fill="rgb(255,153,204)" text-rendering="geometricPrecision" shape-rendering="geometricPrecision" transform="matrix(1,0,0,1,15,15)" stroke="rgb(255,153,204)">
      <circle r="10" clip-path="url(#clipPath2)" cx="2055.8828" cy="221.8008" stroke="none"/>
    </g>
    <g font-size="16px" stroke-linecap="butt" transform="matrix(1,0,0,1,15,15)" text-rendering="geometricPrecision" font-family="sans-serif" shape-rendering="geometricPrecision" stroke-miterlimit="1.45">
      <text x="1955.3594" xml:space="preserve" y="228.0859" clip-path="url(#clipPath2)" stroke="none">anac-data-purpose:7242539</text>
      <circle fill="none" stroke-width="3" r="10" clip-path="url(#clipPath2)" cx="2055.8828" cy="221.8008"/>
    </g>
    <g fill="rgb(255,153,204)" text-rendering="geometricPrecision" shape-rendering="geometricPrecision" transform="matrix(1,0,0,1,15,15)" stroke="rgb(255,153,204)">
      <circle r="10" clip-path="url(#clipPath2)" cx="1095.8828" cy="11.8008" stroke="none"/>
    </g>
    <g font-size="16px" stroke-linecap="butt" transform="matrix(1,0,0,1,15,15)" text-rendering="geometricPrecision" font-family="sans-serif" shape-rendering="geometricPrecision" stroke-miterlimit="1.45">
      <text x="988.2461" xml:space="preserve" y="18.0859" clip-path="url(#clipPath2)" stroke="none">anac-data-procedure:7242539</text>
      <circle fill="none" stroke-width="3" r="10" clip-path="url(#clipPath2)" cx="1095.8828" cy="11.8008"/>
    </g>
    <g fill="rgb(255,153,204)" text-rendering="geometricPrecision" shape-rendering="geometricPrecision" transform="matrix(1,0,0,1,15,15)" stroke="rgb(255,153,204)">
      <circle r="10" clip-path="url(#clipPath2)" cx="285.8828" cy="221.8008" stroke="none"/>
    </g>
    <g font-size="16px" stroke-linecap="butt" transform="matrix(1,0,0,1,15,15)" text-rendering="geometricPrecision" font-family="sans-serif" shape-rendering="geometricPrecision" stroke-miterlimit="1.45">
      <text x="148.457" xml:space="preserve" y="228.0859" clip-path="url(#clipPath2)" stroke="none">anac-data-procedure-number:7242539</text>
      <circle fill="none" stroke-width="3" r="10" clip-path="url(#clipPath2)" cx="285.8828" cy="221.8008"/>
    </g>
    <g fill="rgb(255,153,204)" text-rendering="geometricPrecision" shape-rendering="geometricPrecision" transform="matrix(1,0,0,1,15,15)" stroke="rgb(255,153,204)">
      <circle r="10" clip-path="url(#clipPath2)" cx="1935.8828" cy="181.8008" stroke="none"/>
    </g>
    <g font-size="16px" stroke-linecap="butt" transform="matrix(1,0,0,1,15,15)" text-rendering="geometricPrecision" font-family="sans-serif" shape-rendering="geometricPrecision" stroke-miterlimit="1.45">
      <text x="1838.9219" xml:space="preserve" y="188.0859" clip-path="url(#clipPath2)" stroke="none">anac-data-date:2018-12-28</text>
      <circle fill="none" stroke-width="3" r="10" clip-path="url(#clipPath2)" cx="1935.8828" cy="181.8008"/>
    </g>
    <g fill="rgb(255,153,204)" text-rendering="geometricPrecision" shape-rendering="geometricPrecision" transform="matrix(1,0,0,1,15,15)" stroke="rgb(255,153,204)">
      <circle r="10" clip-path="url(#clipPath2)" cx="1815.8828" cy="221.8008" stroke="none"/>
    </g>
    <g font-size="16px" stroke-linecap="butt" transform="matrix(1,0,0,1,15,15)" text-rendering="geometricPrecision" font-family="sans-serif" shape-rendering="geometricPrecision" stroke-miterlimit="1.45">
      <text x="1721.5859" xml:space="preserve" y="228.0859" clip-path="url(#clipPath2)" stroke="none">anac-data-lot:76807302E8</text>
      <circle fill="none" stroke-width="3" r="10" clip-path="url(#clipPath2)" cx="1815.8828" cy="221.8008"/>
    </g>
    <g fill="rgb(255,153,204)" text-rendering="geometricPrecision" shape-rendering="geometricPrecision" transform="matrix(1,0,0,1,15,15)" stroke="rgb(255,153,204)">
      <circle r="10" clip-path="url(#clipPath2)" cx="1515.8828" cy="181.8008" stroke="none"/>
    </g>
    <g font-size="16px" stroke-linecap="butt" transform="matrix(1,0,0,1,15,15)" text-rendering="geometricPrecision" font-family="sans-serif" shape-rendering="geometricPrecision" stroke-miterlimit="1.45">
      <text x="1238.3789" xml:space="preserve" y="188.0859" clip-path="url(#clipPath2)" stroke="none">anac-data-cost-center:DC39B05A-475E-4C0B-8292-9D852C56464F-7242539</text>
      <circle fill="none" stroke-width="3" r="10" clip-path="url(#clipPath2)" cx="1515.8828" cy="181.8008"/>
    </g>
    <g fill="rgb(255,153,204)" text-rendering="geometricPrecision" shape-rendering="geometricPrecision" transform="matrix(1,0,0,1,15,15)" stroke="rgb(255,153,204)">
      <circle r="10" clip-path="url(#clipPath2)" cx="1215.8828" cy="221.8008" stroke="none"/>
    </g>
    <g font-size="16px" stroke-linecap="butt" transform="matrix(1,0,0,1,15,15)" text-rendering="geometricPrecision" font-family="sans-serif" shape-rendering="geometricPrecision" stroke-miterlimit="1.45">
      <text x="1118.4727" xml:space="preserve" y="228.0859" clip-path="url(#clipPath2)" stroke="none">anac-data-value:1683109.5</text>
      <circle fill="none" stroke-width="3" r="10" clip-path="url(#clipPath2)" cx="1215.8828" cy="221.8008"/>
    </g>
    <g fill="rgb(255,153,204)" text-rendering="geometricPrecision" shape-rendering="geometricPrecision" transform="matrix(1,0,0,1,15,15)" stroke="rgb(255,153,204)">
      <circle r="10" clip-path="url(#clipPath2)" cx="2205.8828" cy="391.8008" stroke="none"/>
    </g>
    <g font-size="16px" stroke-linecap="butt" transform="matrix(1,0,0,1,15,15)" text-rendering="geometricPrecision" font-family="sans-serif" shape-rendering="geometricPrecision" stroke-miterlimit="1.45">
      <text x="2110.2578" xml:space="preserve" y="398.0859" clip-path="url(#clipPath2)" stroke="none">anac-data-cpv:45454000-4</text>
      <circle fill="none" stroke-width="3" r="10" clip-path="url(#clipPath2)" cx="2205.8828" cy="391.8008"/>
    </g>
    <g fill="rgb(255,153,204)" text-rendering="geometricPrecision" shape-rendering="geometricPrecision" transform="matrix(1,0,0,1,15,15)" stroke="rgb(255,153,204)">
      <circle r="10" clip-path="url(#clipPath2)" cx="1095.8828" cy="181.8008" stroke="none"/>
    </g>
    <g font-size="16px" stroke-linecap="butt" transform="matrix(1,0,0,1,15,15)" text-rendering="geometricPrecision" font-family="sans-serif" shape-rendering="geometricPrecision" stroke-miterlimit="1.45">
      <text x="997.1562" xml:space="preserve" y="188.0859" clip-path="url(#clipPath2)" stroke="none">anac-data-procedure-type:1</text>
      <circle fill="none" stroke-width="3" r="10" clip-path="url(#clipPath2)" cx="1095.8828" cy="181.8008"/>
    </g>
    <g fill="rgb(255,153,204)" text-rendering="geometricPrecision" shape-rendering="geometricPrecision" transform="matrix(1,0,0,1,15,15)" stroke="rgb(255,153,204)">
      <circle r="10" clip-path="url(#clipPath2)" cx="935.8828" cy="221.8008" stroke="none"/>
    </g>
    <g font-size="16px" stroke-linecap="butt" transform="matrix(1,0,0,1,15,15)" text-rendering="geometricPrecision" font-family="sans-serif" shape-rendering="geometricPrecision" stroke-miterlimit="1.45">
      <text x="797.1016" xml:space="preserve" y="228.0859" clip-path="url(#clipPath2)" stroke="none">anac-data-buyer:0000543489-7242539</text>
      <circle fill="none" stroke-width="3" r="10" clip-path="url(#clipPath2)" cx="935.8828" cy="221.8008"/>
    </g>
    <g fill="rgb(255,153,204)" text-rendering="geometricPrecision" shape-rendering="geometricPrecision" transform="matrix(1,0,0,1,15,15)" stroke="rgb(255,153,204)">
      <circle r="10" clip-path="url(#clipPath2)" cx="2055.8828" cy="441.8008" stroke="none"/>
    </g>
    <g font-size="16px" stroke-linecap="butt" transform="matrix(1,0,0,1,15,15)" text-rendering="geometricPrecision" font-family="sans-serif" shape-rendering="geometricPrecision" stroke-miterlimit="1.45">
      <text x="1932.2656" xml:space="preserve" y="448.0859" clip-path="url(#clipPath2)" stroke="none">anac-data-contract-nature:LAVORI</text>
      <circle fill="none" stroke-width="3" r="10" clip-path="url(#clipPath2)" cx="2055.8828" cy="441.8008"/>
    </g>
    <g fill="white" text-rendering="geometricPrecision" shape-rendering="geometricPrecision" transform="matrix(1,0,0,1,15,15)" stroke="white">
      <rect x="275.8828" width="20" height="20" y="431.8008" clip-path="url(#clipPath2)" stroke="none"/>
    </g>
    <g font-size="16px" stroke-linecap="butt" transform="matrix(1,0,0,1,15,15)" text-rendering="geometricPrecision" font-family="sans-serif" shape-rendering="geometricPrecision" stroke-miterlimit="1.45">
      <text x="207.3164" xml:space="preserve" y="448.0859" clip-path="url(#clipPath2)" stroke="none">"7242539"^^xsd:string</text>
    </g>
    <g stroke-linecap="butt" transform="matrix(1,0,0,1,15,15)" fill="white" text-rendering="geometricPrecision" shape-rendering="geometricPrecision" stroke="white" stroke-miterlimit="1.45">
      <rect fill="none" x="275.8828" width="20" height="20" y="431.8008" clip-path="url(#clipPath2)"/>
      <rect stroke-linecap="square" x="765.8828" y="171.8008" clip-path="url(#clipPath2)" width="20" height="20" stroke="none" stroke-miterlimit="10"/>
    </g>
    <g font-size="16px" stroke-linecap="butt" transform="matrix(1,0,0,1,15,15)" text-rendering="geometricPrecision" font-family="sans-serif" shape-rendering="geometricPrecision" stroke-miterlimit="1.45">
      <text x="686.6719" xml:space="preserve" y="188.0859" clip-path="url(#clipPath2)" stroke="none">"LAVORI DI "^^xsd:string</text>
    </g>
    <g stroke-linecap="butt" transform="matrix(1,0,0,1,15,15)" fill="white" text-rendering="geometricPrecision" shape-rendering="geometricPrecision" stroke="white" stroke-miterlimit="1.45">
      <rect fill="none" x="765.8828" width="20" height="20" y="171.8008" clip-path="url(#clipPath2)"/>
      <rect stroke-linecap="square" x="655.8828" y="211.8008" clip-path="url(#clipPath2)" width="20" height="20" stroke="none" stroke-miterlimit="10"/>
    </g>
    <g font-size="16px" stroke-linecap="butt" transform="matrix(1,0,0,1,15,15)" text-rendering="geometricPrecision" font-family="sans-serif" shape-rendering="geometricPrecision" stroke-miterlimit="1.45">
      <text x="576.6719" xml:space="preserve" y="228.0859" clip-path="url(#clipPath2)" stroke="none">"LAVORI DI "^^xsd:string</text>
    </g>
    <g stroke-linecap="butt" transform="matrix(1,0,0,1,15,15)" fill="white" text-rendering="geometricPrecision" shape-rendering="geometricPrecision" stroke="white" stroke-miterlimit="1.45">
      <rect fill="none" x="655.8828" width="20" height="20" y="211.8008" clip-path="url(#clipPath2)"/>
      <rect stroke-linecap="square" x="1895.8828" y="381.8008" clip-path="url(#clipPath2)" width="20" height="20" stroke="none" stroke-miterlimit="10"/>
    </g>
    <g font-size="16px" stroke-linecap="butt" transform="matrix(1,0,0,1,15,15)" text-rendering="geometricPrecision" font-family="sans-serif" shape-rendering="geometricPrecision" stroke-miterlimit="1.45">
      <text x="1816.6719" xml:space="preserve" y="398.0859" clip-path="url(#clipPath2)" stroke="none">"LAVORI DI "^^xsd:string</text>
    </g>
    <g stroke-linecap="butt" transform="matrix(1,0,0,1,15,15)" fill="white" text-rendering="geometricPrecision" shape-rendering="geometricPrecision" stroke="white" stroke-miterlimit="1.45">
      <rect fill="none" x="1895.8828" width="20" height="20" y="381.8008" clip-path="url(#clipPath2)"/>
      <rect stroke-linecap="square" x="165.8828" y="381.8008" clip-path="url(#clipPath2)" width="20" height="20" stroke="none" stroke-miterlimit="10"/>
    </g>
    <g font-size="16px" stroke-linecap="butt" transform="matrix(1,0,0,1,15,15)" text-rendering="geometricPrecision" font-family="sans-serif" shape-rendering="geometricPrecision" stroke-miterlimit="1.45">
      <text x="97.3164" xml:space="preserve" y="398.0859" clip-path="url(#clipPath2)" stroke="none">"7242539"^^xsd:string</text>
    </g>
    <g stroke-linecap="butt" transform="matrix(1,0,0,1,15,15)" fill="white" text-rendering="geometricPrecision" shape-rendering="geometricPrecision" stroke="white" stroke-miterlimit="1.45">
      <rect fill="none" x="165.8828" width="20" height="20" y="381.8008" clip-path="url(#clipPath2)"/>
      <rect stroke-linecap="square" x="465.8828" y="171.8008" clip-path="url(#clipPath2)" width="20" height="20" stroke="none" stroke-miterlimit="10"/>
    </g>
    <g font-size="16px" stroke-linecap="butt" transform="matrix(1,0,0,1,15,15)" text-rendering="geometricPrecision" font-family="sans-serif" shape-rendering="geometricPrecision" stroke-miterlimit="1.45">
      <text x="309.3242" xml:space="preserve" y="188.0859" clip-path="url(#clipPath2)" stroke="none">"SEZIONE REGIONALE VENETO"^^xsd:string</text>
    </g>
    <g stroke-linecap="butt" transform="matrix(1,0,0,1,15,15)" fill="white" text-rendering="geometricPrecision" shape-rendering="geometricPrecision" stroke="white" stroke-miterlimit="1.45">
      <rect fill="none" x="465.8828" width="20" height="20" y="171.8008" clip-path="url(#clipPath2)"/>
      <rect stroke-linecap="square" x="115.8828" y="171.8008" clip-path="url(#clipPath2)" width="20" height="20" stroke="none" stroke-miterlimit="10"/>
    </g>
    <g font-size="16px" stroke-linecap="butt" transform="matrix(1,0,0,1,15,15)" text-rendering="geometricPrecision" font-family="sans-serif" shape-rendering="geometricPrecision" stroke-miterlimit="1.45">
      <text x="2" xml:space="preserve" y="188.0859" clip-path="url(#clipPath2)" stroke="none">"false"^^xsd:boolean^^xsd:boolean</text>
    </g>
    <g stroke-linecap="butt" transform="matrix(1,0,0,1,15,15)" fill="white" text-rendering="geometricPrecision" shape-rendering="geometricPrecision" stroke="white" stroke-miterlimit="1.45">
      <rect fill="none" x="115.8828" width="20" height="20" y="171.8008" clip-path="url(#clipPath2)"/>
      <rect stroke-linecap="square" x="1785.8828" y="431.8008" clip-path="url(#clipPath2)" width="20" height="20" stroke="none" stroke-miterlimit="10"/>
    </g>
    <g font-size="16px" stroke-linecap="butt" transform="matrix(1,0,0,1,15,15)" text-rendering="geometricPrecision" font-family="sans-serif" shape-rendering="geometricPrecision" stroke-miterlimit="1.45">
      <text x="1706.6719" xml:space="preserve" y="448.0859" clip-path="url(#clipPath2)" stroke="none">"LAVORI DI "^^xsd:string</text>
    </g>
    <g stroke-linecap="butt" transform="matrix(1,0,0,1,15,15)" fill="white" text-rendering="geometricPrecision" shape-rendering="geometricPrecision" stroke="white" stroke-miterlimit="1.45">
      <rect fill="none" x="1785.8828" width="20" height="20" y="431.8008" clip-path="url(#clipPath2)"/>
      <path fill="none" d="M2055.8828 231.8008 L2055.8828 261.8008 L2325.8828 261.8008 L2325.8828 418.7605" clip-path="url(#clipPath2)" stroke="black"/>
      <path fill="black" d="M2325.8828 426.7605 L2330.8828 414.7605 L2325.8828 417.7605 L2320.8828 414.7605 Z" clip-path="url(#clipPath2)" stroke="none"/>
      <rect x="2303.873" width="44.0195" height="18.7012" y="330.3877" clip-path="url(#clipPath2)" stroke="none"/>
      <text x="2305.873" y="344.4521" clip-path="url(#clipPath2)" fill="black" font-family="sans-serif" stroke="none" xml:space="preserve">rdf:type</text>
      <path fill="none" d="M1095.8828 21.8008 L1095.8828 51.8008 L2175.8828 51.8008 L2175.8828 158.7727" clip-path="url(#clipPath2)" stroke="black"/>
      <path fill="black" d="M2175.8828 166.7727 L2180.8828 154.7727 L2175.8828 157.7727 L2170.8828 154.7727 Z" clip-path="url(#clipPath2)" stroke="none"/>
      <rect x="2153.873" width="44.0195" height="18.7012" y="74.0942" clip-path="url(#clipPath2)" stroke="none"/>
      <text x="2155.873" y="88.1587" clip-path="url(#clipPath2)" fill="black" font-family="sans-serif" stroke="none" xml:space="preserve">rdf:type</text>
      <path fill="none" d="M1095.8828 21.8008 L1095.8828 51.8008 L2055.8828 51.8008 L2055.8828 203.8008" clip-path="url(#clipPath2)" stroke="navy"/>
      <path fill="navy" d="M2055.8828 211.8008 L2060.8828 199.8008 L2055.8828 202.8008 L2050.8828 199.8008 Z" clip-path="url(#clipPath2)" stroke="none"/>
      <rect x="1974.5029" width="162.7598" height="18.7012" y="134.1594" clip-path="url(#clipPath2)" stroke="none"/>
      <text x="1976.5029" y="148.2239" clip-path="url(#clipPath2)" fill="black" font-family="sans-serif" stroke="none" xml:space="preserve">anac-onto:hasOverallPurpose</text>
      <path fill="none" d="M1095.8828 21.8008 L1095.8828 51.8008 L285.8828 51.8008 L285.8828 203.8008" clip-path="url(#clipPath2)" stroke="navy"/>
      <path fill="navy" d="M285.8828 211.8008 L290.8828 199.8008 L285.8828 202.8008 L280.8828 199.8008 Z" clip-path="url(#clipPath2)" stroke="none"/>
      <rect x="196.833" width="178.0996" height="18.7012" y="134.1594" clip-path="url(#clipPath2)" stroke="none"/>
      <text x="198.833" y="148.2239" clip-path="url(#clipPath2)" fill="black" font-family="sans-serif" stroke="none" xml:space="preserve">anac-onto:hasProcedureNumber</text>
      <path fill="none" d="M285.8828 231.8008 L285.8828 261.8008 L425.8828 261.8008 L425.8828 368.7727" clip-path="url(#clipPath2)" stroke="black"/>
      <path fill="black" d="M425.8828 376.7727 L430.8828 364.7727 L425.8828 367.7727 L420.8828 364.7727 Z" clip-path="url(#clipPath2)" stroke="none"/>
      <rect x="403.873" width="44.0195" height="18.7012" y="284.0942" clip-path="url(#clipPath2)" stroke="none"/>
      <text x="405.873" y="298.1587" clip-path="url(#clipPath2)" fill="black" font-family="sans-serif" stroke="none" xml:space="preserve">rdf:type</text>
      <path fill="none" d="M1095.8828 21.8008 L1095.8828 51.8008 L1935.8828 51.8008 L1935.8828 163.8008" clip-path="url(#clipPath2)" stroke="navy"/>
      <path fill="navy" d="M1935.8828 171.8008 L1940.8828 159.8008 L1935.8828 162.8008 L1930.8828 159.8008 Z" clip-path="url(#clipPath2)" stroke="none"/>
      <rect x="1853.501" width="164.7637" height="18.7012" y="75.3442" clip-path="url(#clipPath2)" stroke="none"/>
      <text x="1855.501" y="89.4087" clip-path="url(#clipPath2)" fill="black" font-family="sans-serif" stroke="none" xml:space="preserve">anac-onto:hasNotificationDate</text>
      <path fill="none" d="M1095.8828 21.8008 L1095.8828 51.8008 L1815.8828 51.8008 L1815.8828 203.8008" clip-path="url(#clipPath2)" stroke="navy"/>
      <path fill="navy" d="M1815.8828 211.8008 L1820.8828 199.8008 L1815.8828 202.8008 L1810.8828 199.8008 Z" clip-path="url(#clipPath2)" stroke="none"/>
      <rect x="1762.1855" width="107.3945" height="18.7012" y="134.1594" clip-path="url(#clipPath2)" stroke="none"/>
      <text x="1764.1855" y="148.2239" clip-path="url(#clipPath2)" fill="black" font-family="sans-serif" stroke="none" xml:space="preserve">anac-onto:specifies</text>
      <path fill="none" d="M1095.8828 21.8008 L1095.8828 51.8008 L1515.8828 51.8008 L1515.8828 163.8008" clip-path="url(#clipPath2)" stroke="navy"/>
      <path fill="navy" d="M1515.8828 171.8008 L1520.8828 159.8008 L1515.8828 162.8008 L1510.8828 159.8008 Z" clip-path="url(#clipPath2)" stroke="none"/>
      <rect x="1439.8379" width="152.0898" height="18.7012" y="75.3442" clip-path="url(#clipPath2)" stroke="none"/>
      <text x="1441.8379" y="89.4087" clip-path="url(#clipPath2)" fill="black" font-family="sans-serif" stroke="none" xml:space="preserve">anac-onto:hasCostManager</text>
      <path fill="none" d="M1095.8828 21.8008 L1095.8828 51.8008 L1215.8828 51.8008 L1215.8828 203.8008" clip-path="url(#clipPath2)" stroke="navy"/>
      <path fill="navy" d="M1215.8828 211.8008 L1220.8828 199.8008 L1215.8828 202.8008 L1210.8828 199.8008 Z" clip-path="url(#clipPath2)" stroke="none"/>
      <rect x="1133.832" width="164.1016" height="18.7012" y="134.1594" clip-path="url(#clipPath2)" stroke="none"/>
      <text x="1135.832" y="148.2239" clip-path="url(#clipPath2)" fill="black" font-family="sans-serif" stroke="none" xml:space="preserve">anac-onto:hasEstimatedValue</text>
      <path fill="none" d="M2055.8828 231.8008 L2055.8828 261.8008 L2205.8828 261.8008 L2205.8828 373.8008" clip-path="url(#clipPath2)" stroke="navy"/>
      <path fill="navy" d="M2205.8828 381.8008 L2210.8828 369.8008 L2205.8828 372.8008 L2200.8828 369.8008 Z" clip-path="url(#clipPath2)" stroke="none"/>
      <rect x="2117.5039" width="176.7578" height="18.7012" y="285.3442" clip-path="url(#clipPath2)" stroke="none"/>
      <text x="2119.5039" y="299.4087" clip-path="url(#clipPath2)" fill="black" font-family="sans-serif" stroke="none" xml:space="preserve">anac-onto:hasMainClassification</text>
      <path fill="none" d="M1095.8828 21.8008 L1095.8828 163.8008" clip-path="url(#clipPath2)" stroke="navy"/>
      <path fill="navy" d="M1095.8828 171.8008 L1100.8828 159.8008 L1095.8828 162.8008 L1090.8828 159.8008 Z" clip-path="url(#clipPath2)" stroke="none"/>
      <rect x="1014.834" width="162.0977" height="18.7012" y="68.9421" clip-path="url(#clipPath2)" stroke="none"/>
      <text x="1016.834" y="83.0065" clip-path="url(#clipPath2)" fill="black" font-family="sans-serif" stroke="none" xml:space="preserve">anac-onto:hasProcedureType</text>
      <path fill="none" d="M1095.8828 21.8008 L1095.8828 51.8008 L935.8828 51.8008 L935.8828 203.8008" clip-path="url(#clipPath2)" stroke="navy"/>
      <path fill="navy" d="M935.8828 211.8008 L940.8828 199.8008 L935.8828 202.8008 L930.8828 199.8008 Z" clip-path="url(#clipPath2)" stroke="none"/>
      <rect x="859.1787" width="153.4082" height="18.7012" y="134.1594" clip-path="url(#clipPath2)" stroke="none"/>
      <text x="861.1787" y="148.2239" clip-path="url(#clipPath2)" fill="black" font-family="sans-serif" stroke="none" xml:space="preserve">anac-onto:isResponsiblityOf</text>
      <path fill="none" d="M2055.8828 231.8008 L2055.8828 423.8008" clip-path="url(#clipPath2)" stroke="navy"/>
      <path fill="navy" d="M2055.8828 431.8008 L2060.8828 419.8008 L2055.8828 422.8008 L2050.8828 419.8008 Z" clip-path="url(#clipPath2)" stroke="none"/>
      <rect x="1975.1709" width="161.4238" height="18.7012" y="342.5813" clip-path="url(#clipPath2)" stroke="none"/>
      <text x="1977.1709" y="356.6458" clip-path="url(#clipPath2)" fill="black" font-family="sans-serif" stroke="none" xml:space="preserve">anac-onto:hasContractNature</text>
      <path fill="none" d="M285.8828 231.8008 L285.8828 416.752" clip-path="url(#clipPath2)" stroke="green"/>
      <path d="M285.8828 431.752 L291.8828 415.752 L279.8828 415.752 Z" clip-path="url(#clipPath2)" stroke="none"/>
      <path fill="none" d="M285.8828 431.752 L291.8828 415.752 L279.8828 415.752 Z" clip-path="url(#clipPath2)" stroke="green"/>
      <rect x="207.4971" width="156.7715" height="18.7012" y="342.5813" clip-path="url(#clipPath2)" stroke="none"/>
      <text x="209.4971" y="356.6458" clip-path="url(#clipPath2)" fill="black" font-family="sans-serif" stroke="none" xml:space="preserve">anac-onto:hasIdentifierValue</text>
      <path fill="none" d="M1095.8828 21.8008 L1095.8828 51.8008 L775.8828 51.8008 L775.8828 156.7715" clip-path="url(#clipPath2)" stroke="green"/>
      <path d="M775.8828 171.7715 L781.8828 155.7715 L769.8828 155.7715 Z" clip-path="url(#clipPath2)" stroke="none"/>
      <path fill="none" d="M775.8828 171.7715 L781.8828 155.7715 L769.8828 155.7715 Z" clip-path="url(#clipPath2)" stroke="green"/>
      <rect x="705.8438" width="140.0781" height="18.7012" y="75.3442" clip-path="url(#clipPath2)" stroke="none"/>
      <text x="707.8438" y="89.4087" clip-path="url(#clipPath2)" fill="black" font-family="sans-serif" stroke="none" xml:space="preserve">anac-onto:hasDescription</text>
      <path fill="none" d="M1095.8828 21.8008 L1095.8828 51.8008 L665.8828 51.8008 L665.8828 196.7617" clip-path="url(#clipPath2)" stroke="green"/>
      <path d="M665.8828 211.7617 L671.8828 195.7617 L659.8828 195.7617 Z" clip-path="url(#clipPath2)" stroke="none"/>
      <path fill="none" d="M665.8828 211.7617 L671.8828 195.7617 L659.8828 195.7617 Z" clip-path="url(#clipPath2)" stroke="green"/>
      <rect x="639.5371" width="52.6914" height="18.7012" y="134.1594" clip-path="url(#clipPath2)" stroke="none"/>
      <text x="641.5371" y="148.2239" clip-path="url(#clipPath2)" fill="black" font-family="sans-serif" stroke="none" xml:space="preserve">rdfs:label</text>
      <path fill="none" d="M2055.8828 231.8008 L2055.8828 261.8008 L1905.8828 261.8008 L1905.8828 366.7715" clip-path="url(#clipPath2)" stroke="green"/>
      <path d="M1905.8828 381.7715 L1911.8828 365.7715 L1899.8828 365.7715 Z" clip-path="url(#clipPath2)" stroke="none"/>
      <path fill="none" d="M1905.8828 381.7715 L1911.8828 365.7715 L1899.8828 365.7715 Z" clip-path="url(#clipPath2)" stroke="green"/>
      <rect x="1879.5371" width="52.6914" height="18.7012" y="285.3442" clip-path="url(#clipPath2)" stroke="none"/>
      <text x="1881.5371" y="299.4087" clip-path="url(#clipPath2)" fill="black" font-family="sans-serif" stroke="none" xml:space="preserve">rdfs:label</text>
      <path fill="none" d="M285.8828 231.8008 L285.8828 261.8008 L175.8828 261.8008 L175.8828 366.7715" clip-path="url(#clipPath2)" stroke="green"/>
      <path d="M175.8828 381.7715 L181.8828 365.7715 L169.8828 365.7715 Z" clip-path="url(#clipPath2)" stroke="none"/>
      <path fill="none" d="M175.8828 381.7715 L181.8828 365.7715 L169.8828 365.7715 Z" clip-path="url(#clipPath2)" stroke="green"/>
      <rect x="149.5371" width="52.6914" height="18.7012" y="285.3442" clip-path="url(#clipPath2)" stroke="none"/>
      <text x="151.5371" y="299.4087" clip-path="url(#clipPath2)" fill="black" font-family="sans-serif" stroke="none" xml:space="preserve">rdfs:label</text>
      <path fill="none" d="M1095.8828 21.8008 L1095.8828 51.8008 L475.8828 51.8008 L475.8828 156.7715" clip-path="url(#clipPath2)" stroke="green"/>
      <path d="M475.8828 171.7715 L481.8828 155.7715 L469.8828 155.7715 Z" clip-path="url(#clipPath2)" stroke="none"/>
      <path fill="none" d="M475.8828 171.7715 L481.8828 155.7715 L469.8828 155.7715 Z" clip-path="url(#clipPath2)" stroke="green"/>
      <rect x="388.8398" width="174.0859" height="18.7012" y="75.3442" clip-path="url(#clipPath2)" stroke="none"/>
      <text x="390.8398" y="89.4087" clip-path="url(#clipPath2)" fill="black" font-family="sans-serif" stroke="none" xml:space="preserve">anac-onto:territorialAreaContext</text>
      <path fill="none" d="M1095.8828 21.8008 L1095.8828 51.8008 L125.8828 51.8008 L125.8828 156.7715" clip-path="url(#clipPath2)" stroke="green"/>
      <path d="M125.8828 171.7715 L131.8828 155.7715 L119.8828 155.7715 Z" clip-path="url(#clipPath2)" stroke="none"/>
      <path fill="none" d="M125.8828 171.7715 L131.8828 155.7715 L119.8828 155.7715 Z" clip-path="url(#clipPath2)" stroke="green"/>
      <rect x="64.5273" width="122.7109" height="18.7012" y="75.3442" clip-path="url(#clipPath2)" stroke="none"/>
      <text x="66.5273" y="89.4087" clip-path="url(#clipPath2)" fill="black" font-family="sans-serif" stroke="none" xml:space="preserve">anac-onto:isSmartCIG</text>
      <path fill="none" d="M2055.8828 231.8008 L2055.8828 261.8008 L1795.8828 261.8008 L1795.8828 416.7593" clip-path="url(#clipPath2)" stroke="green"/>
      <path d="M1795.8828 431.7593 L1801.8828 415.7593 L1789.8828 415.7593 Z" clip-path="url(#clipPath2)" stroke="none"/>
      <path fill="none" d="M1795.8828 431.7593 L1801.8828 415.7593 L1789.8828 415.7593 Z" clip-path="url(#clipPath2)" stroke="green"/>
      <rect x="1725.8438" width="140.0781" height="18.7012" y="332.8877" clip-path="url(#clipPath2)" stroke="none"/>
      <text x="1727.8438" y="346.9521" clip-path="url(#clipPath2)" fill="black" font-family="sans-serif" stroke="none" xml:space="preserve">anac-onto:hasDescription</text>
    </g>
  </g>
</svg>
